<?xml version="1.0" encoding="utf-8"?>
<!-- Generator: Adobe Illustrator 16.0.4, SVG Export Plug-In . SVG Version: 6.00 Build 0)  -->
<!DOCTYPE svg PUBLIC "-//W3C//DTD SVG 1.1//EN" "http://www.w3.org/Graphics/SVG/1.1/DTD/svg11.dtd">
<svg version="1.1" id="gr_x5F_icon16_x5F_twigProfiler"
	 xmlns="http://www.w3.org/2000/svg" xmlns:xlink="http://www.w3.org/1999/xlink" x="0px" y="0px" width="250px" height="250px"
	 viewBox="0 0 250 250" enable-background="new 0 0 250 250" xml:space="preserve">
<g id="gr_x5F_big_40_">
	<path id="gr_230_" fill="#F3BA48" d="M237.665,172.702c0,9.539-6.756,21.251-15.021,26.019l-82.621,47.702
		c-8.263,4.771-21.781,4.771-30.044,0l-82.625-47.702c-8.262-4.768-15.021-16.479-15.021-26.019V77.301
		c0-9.542,6.759-21.254,15.021-26.019l82.625-47.706c8.263-4.771,21.781-4.771,30.044,0l82.621,47.706
		c8.266,4.764,15.021,16.476,15.021,26.019V172.702z"/>
	<path fill="#FFFFFF" d="M189.168,111.146l-20.09-34.793c-3.94-6.836-12.681-9.173-19.51-5.228l-83.511,48.215
		c-6.836,3.944-9.173,12.682-5.231,19.514l20.089,34.798c3.948,6.832,12.682,9.172,19.518,5.228l83.511-48.211
		C190.772,126.716,193.116,117.982,189.168,111.146z M110.017,104.409l2.225-1.285c0.238-0.138,0.545-0.055,0.683,0.183
		l6.643,11.501c0.138,0.238,0.055,0.546-0.183,0.683l-2.224,1.286c-0.238,0.137-0.545,0.055-0.683-0.183l-6.644-11.502
		C109.696,104.854,109.779,104.546,110.017,104.409z M77.058,123.438l2.224-1.285c0.238-0.137,0.545-0.055,0.683,0.183l6.643,11.502
		c0.138,0.237,0.055,0.545-0.183,0.683l-2.224,1.286c-0.238,0.138-0.545,0.055-0.683-0.183l-6.643-11.503
		C76.737,123.883,76.82,123.575,77.058,123.438z M87.576,150.355l-5.314,3.071c-0.238,0.138-0.545,0.055-0.683-0.183l-13.786-23.877
		c-0.138-0.237-0.055-0.545,0.183-0.683l5.314-3.072c0.238-0.137,0.545-0.055,0.683,0.183l13.786,23.877
		C87.897,149.91,87.814,150.218,87.576,150.355z M92.424,131.061l-2.231,1.286c-0.238,0.138-0.545,0.056-0.683-0.183l-6.643-11.503
		c-0.138-0.238-0.055-0.545,0.183-0.683l2.231-1.286c0.238-0.137,0.545-0.055,0.683,0.184l6.643,11.502
		C92.745,130.615,92.662,130.923,92.424,131.061z M98.416,127.601l-2.231,1.286c-0.238,0.138-0.545,0.055-0.683-0.183l-6.643-11.502
		c-0.138-0.238-0.055-0.545,0.183-0.683l2.231-1.286c0.238-0.138,0.545-0.055,0.683,0.183l6.643,11.502
		C98.737,127.155,98.654,127.463,98.416,127.601z M104.408,124.141l-2.23,1.286c-0.238,0.137-0.545,0.055-0.683-0.184l-6.643-11.501
		c-0.138-0.238-0.055-0.545,0.183-0.683l2.231-1.286c0.238-0.138,0.545-0.055,0.683,0.183l6.643,11.502
		C104.729,123.696,104.646,124.003,104.408,124.141z M120.633,131.271l-5.321,3.071c-0.238,0.138-0.545,0.055-0.683-0.183
		l-13.786-23.877c-0.138-0.238-0.055-0.545,0.183-0.683l5.321-3.071c0.238-0.138,0.545-0.055,0.683,0.183l13.786,23.877
		C120.954,130.825,120.872,131.133,120.633,131.271z M125.383,112.031l-2.23,1.286c-0.238,0.138-0.545,0.055-0.683-0.183
		l-6.644-11.501c-0.138-0.238-0.055-0.545,0.183-0.683l2.231-1.287c0.238-0.137,0.545-0.055,0.683,0.184l6.643,11.501
		C125.704,111.586,125.622,111.893,125.383,112.031z M131.375,108.57l-2.23,1.287c-0.238,0.137-0.546,0.055-0.684-0.184
		l-6.643-11.501c-0.138-0.238-0.055-0.545,0.183-0.683l2.23-1.286c0.238-0.138,0.545-0.055,0.683,0.183l6.644,11.501
		C131.696,108.126,131.613,108.433,131.375,108.57z M137.366,105.111l-2.229,1.286c-0.238,0.137-0.546,0.055-0.684-0.184
		l-6.643-11.501c-0.138-0.238-0.055-0.545,0.184-0.683l2.229-1.286c0.238-0.138,0.546-0.055,0.684,0.183l6.643,11.502
		C137.688,104.667,137.604,104.974,137.366,105.111z M153.593,112.241l-5.322,3.071c-0.237,0.138-0.545,0.055-0.683-0.183
		l-13.786-23.876c-0.138-0.238-0.055-0.545,0.183-0.683l5.322-3.071c0.237-0.138,0.545-0.055,0.683,0.183l13.786,23.876
		C153.913,111.796,153.83,112.103,153.593,112.241z M168.514,109.13c-3.411,1.974-7.785,0.802-9.752-2.616
		c-1.974-3.418-0.802-7.78,2.616-9.751c3.41-1.975,7.777-0.806,9.751,2.612C173.104,102.79,171.932,107.16,168.514,109.13z"/>
</g>
</svg>
